<?xml version="1.0" encoding="UTF-8"?>
<svg width="512" height="512" viewBox="0 0 512 512" fill="none" xmlns="http://www.w3.org/2000/svg">
  <rect width="512" height="512" fill="#4F46E5"/>
  <path d="M256 128C179.309 128 128 179.309 128 256C128 332.691 179.309 384 256 384C332.691 384 384 332.691 384 256C384 179.309 332.691 128 256 128ZM256 352C197.019 352 160 314.981 160 256C160 197.019 197.019 160 256 160C314.981 160 352 197.019 352 256C352 314.981 314.981 352 256 352Z" fill="white"/>
  <path d="M256 192C215.019 192 192 215.019 192 256C192 296.981 215.019 320 256 320C296.981 320 320 296.981 320 256C320 215.019 296.981 192 256 192Z" fill="white"/>
</svg> 